<?xml version="1.0" encoding="utf-8"?>
<!-- Generator: Adobe Illustrator 22.0.1, SVG Export Plug-In . SVG Version: 6.00 Build 0)  -->
<svg version="1.1" id="Layer_1" xmlns="http://www.w3.org/2000/svg" xmlns:xlink="http://www.w3.org/1999/xlink" x="0px" y="0px"
	 viewBox="0 0 415 142" style="enable-background:new 0 0 415 142;" xml:space="preserve">
<style type="text/css">
	.st0{fill-rule:evenodd;clip-rule:evenodd;fill:#ECECE7;}
</style>
<g>
	<path class="st0" d="M226.3,7h-37l-21.2,94.6h26.9l3.1-15.9h19.2l3.1,15.9c0,0,0-0.2,0.2,0c8.9,0,26.7,0,26.7,0L226.3,7L226.3,7z
		 M214.1,63.9h-12.2l5.4-30l0.4-1.8c0,0,0.1,0,0.2,0c0.3,1.6,5.9,31.1,6.3,31.6C214.1,63.8,214.1,63.9,214.1,63.9L214.1,63.9z"/>
	<polygon class="st0" points="38.9,34.7 62.6,34.7 52.6,80.2 66.2,80.2 61.7,101.6 24,101.6 38.9,34.7 	"/>
	<path class="st0" d="M117.6,34.7H79.8l-14.7,66.9h21l2-9.5h8.4v9.5h21.1V34.7L117.6,34.7z M96.5,74.1h-4.7L96.4,56L96.5,74.1
		L96.5,74.1z"/>
	<path class="st0" d="M155,34.7h21.7L162,101.6c-12.6,0-25.2,0-37.9,0c0-22.3,0-44.5,0-66.9c7.2,0,14.4,0,21.5,0
		c0,10.3,0,41.5,0,41.5L155,34.7L155,34.7z"/>
	<polygon class="st0" points="292.5,101.6 251.4,101.6 255.6,56.9 241.9,56.9 238,34.7 281.2,34.7 276.4,80.9 288.4,80.9 
		292.5,101.6 	"/>
	<path class="st0" d="M337.9,101.6h-41.1l4.1-44.7h-13.6l-3.9-22.2c0,0,3,0,4.3,0c2.9,0,5.9,0,8.8,0c10,0,30.2,0,30.2,0L321.8,81
		H334L337.9,101.6L337.9,101.6z"/>
	<path class="st0" d="M370.4,101.6h21l-14.5-66.9c0,0-0.1,0-0.2,0c0-0.1,0,0.1,0,0c-8.8,0-37.8,0-37.8,0v66.9H360v-9.5h8.4
		L370.4,101.6L370.4,101.6z M364.7,74.1h-4.6V56.4L364.7,74.1L364.7,74.1z"/>
	<path class="st0" d="M30.3,111.3v21.8h-5.7c0,0,0-4.8,0-6.7c0-5,0-15,0-15H30.3L30.3,111.3z"/>
	<path class="st0" d="M32.3,111.3c5.2,0,10.4,0,15.6,0c0,1.7,0,3.4,0,5.1c-1.6,0-3.2,0-4.8,0c0,5.5,0,16.6,0,16.6h-5.7
		c0,0,0-11.1,0-16.6c-1.7,0-3.4,0-5,0C32.3,114.7,32.3,113.1,32.3,111.3L32.3,111.3z"/>
	<path class="st0" d="M58.3,111.3c-2.1,0-4.2,0-6.3,0l-6.5,21.8h5c0,0,1.2-3.6,1.3-4.2c1.9,0,3.7,0,5.6,0c0.4,1.4,1.1,4.2,1.1,4.2
		h0.2c0,0,0-0.1,0,0c1.4,0,2.9,0,4.3,0c0.6,0,1.6,0,1.6,0s0.1,0,0.2,0L58.3,111.3L58.3,111.3z M53.5,123.8l1.1-4.3h0.2l1.3,4.3H53.5
		L53.5,123.8z"/>
	<path class="st0" d="M66,111.3c1.9,0,5.7,0,5.7,0s0,12.7,0,16.5c2.6,0,7.9,0,7.9,0v5.3c0,0-10.5,0-13.5,0
		C66,125.8,66,118.6,66,111.3L66,111.3z"/>
	<path class="st0" d="M86.3,118.3l3.2-6.9c0,0,3.8,0,5.6,0l-6.5,12.4c0,3.1,0,6.2,0,9.3c-1.9,0-5.7,0-5.7,0s0-7.3,0-9.3l-6.6-12.4
		c2.2,0,4.4,0,6.6,0L86.3,118.3L86.3,118.3z"/>
	<path class="st0" d="M98.3,116.7c-0.5,0-1.1,0-1.6,0c0-1.8,0-3.5,0-5.3c1.7,0,5.3,0,5.3,0v4.4l-2.6,5c-1,0-2,0-3.1,0
		c0-0.1,0-0.1,0-0.2L98.3,116.7L98.3,116.7z"/>
	<path class="st0" d="M132.1,111.3c5,0,10,0,15,0c0,1.7,0,3.5,0,5.2c-3.1,0-6.2,0-9.3,0c0,1.1,0,2.3,0,3.4c2.5,0,7.4,0,7.4,0v5.1
		h-7.4v8.2h-5.7c0,0,0-4.9,0-6.8C132.1,121.3,132.1,116.3,132.1,111.3L132.1,111.3z"/>
	<path class="st0" d="M144.6,133.2c1.7,0,3.5,0,5.2,0c0.4-1.4,0.8-2.9,1.3-4.3c1.9,0,5.6,0,5.6,0l1.1,4.3h6.1l-6.5-21.8
		c-1.4,0-6.2,0-6.3,0L144.6,133.2L144.6,133.2z M153.8,119.4c0.1,0,0.1,0,0.2,0l1.1,4.5c-0.8,0-1.7,0-2.5,0L153.8,119.4L153.8,119.4
		z"/>
	<path class="st0" d="M170.1,124.2c0.1,0,0.1,0,0.2,0l3.4-12.8h0.2h5l-6.1,21.7h-0.2H171h-4.1h-0.2l-6.1-21.7h6.1L170.1,124.2
		L170.1,124.2z"/>
	<path class="st0" d="M231.7,123.7c2.2-1,3.9-4.2,2.9-7.4c-0.1-0.4-0.1-0.8-0.2-1.3c-0.1,0-0.7-1-0.7-1.3c-0.3-0.2-1.3-1.2-1.4-1.4
		c-0.1,0-0.4-0.1-0.4-0.2c-0.2-0.1-0.7-0.3-0.7-0.4c-0.4-0.1-1.1-0.3-1.1-0.4c-0.4,0-1.1-0.1-1.1-0.1c-2.5,0-7.5,0-7.5,0h-3.5
		c0,0,0,10.1,0,15c0,1.9,0,6.8,0,6.8s3.8,0,5.7,0c0-2.8,0-5.5,0-8.3c0.8,0,1.7,0,2.5,0l3.1,8.3c2,0,4.1,0,6.1,0L231.7,123.7
		L231.7,123.7z M228.9,118.7c0,0.7-0.7,1.3-1.5,1.5c-1.3,0-2.6,0.1-3.9,0.1c0-1.4,0-2.8,0-4.1c1.3,0,3.8-0.3,4.5,0.4
		C228.8,116.9,229.1,117.7,228.9,118.7L228.9,118.7z"/>
	<path class="st0" d="M359.6,111.3c5,0,10.1,0,15.1,0c0,1.7,0,3.5,0,5.2c-3.1,0-6.2,0-9.3,0c0,1,0,2,0,3.1c2.5,0,4.9,0,7.4,0
		c0,1.7,0,3.3,0,5c-2.5,0-4.9,0-7.4,0c0,1.1,0,2.3,0,3.4c3.1,0,6.2,0,9.3,0c0,1.7,0,3.5,0,5.2c-5,0-10.1,0-15.1,0
		C359.6,125.9,359.6,118.6,359.6,111.3L359.6,111.3z"/>
	<path class="st0" d="M349.2,133.2h-5.7c0,0,0-14.6,0-21.9c5,0,10.1,0,15.1,0c0,1.7,0,3.5,0,5.2c-3.1,0-6.2,0-9.3,0c0,1,0,2.6,0,3.6
		c2.5,0,4.9,0,7.4,0c0,1.7,0,3.4,0,5c-2.5,0-4.9,0-7.4,0c0,1.1,0,1.7,0,2.9V133.2L349.2,133.2z"/>
	<path class="st0" d="M333.3,133.2h-5.7c0,0,0-14.6,0-21.9c5,0,10.1,0,15.1,0c0,1.7,0,3.5,0,5.2c-3.1,0-6.2,0-9.3,0c0,1,0,2.6,0,3.6
		c2.5,0,4.9,0,7.4,0c0,1.7,0,3.4,0,5c-2.5,0-4.9,0-7.4,0c0,1.1,0,1.7,0,2.9V133.2L333.3,133.2z"/>
	<path class="st0" d="M112.2,133.4c-5.2,0-8.3-2.4-8.6-7l5.3-0.8c0.3,1.6,1.9,3,3.6,3c1.5,0,2.3-0.6,2.3-1.6c0-1.4-1.1-1.5-3.4-2.2
		c-2.7-0.8-4.3-1.6-5.1-2.2c-1.5-1.2-1.8-2.5-1.8-4.7c0-4.2,2.6-6.9,7.5-7.2c5-0.3,6.9,1.9,8.4,6l-5,1.4c-0.2-1.3-1.6-2.6-3.1-2.5
		c-1.3,0.1-2.1,0.6-2.1,1.4c0,1.2,0.8,1.1,2.6,1.8c2.1,0.8,4,1.5,5.2,2.5c1.7,1.3,2.7,2.3,2.7,4.6
		C120.7,130.6,117.9,133.4,112.2,133.4L112.2,133.4z"/>
	<path class="st0" d="M187.2,133.5c-5.5,0-8.9-4.3-8.9-11.3c0-7,3.4-11.3,8.9-11.3c5.5,0,8.9,4.3,8.9,11.3
		C196.1,129.2,192.7,133.5,187.2,133.5L187.2,133.5z M187.2,116.3c-2.3,0-3.4,1.9-3.4,5.9c0,4,1,5.9,3.4,5.9c2.3,0,3.3-1.9,3.3-5.9
		C190.5,118.2,189.5,116.3,187.2,116.3L187.2,116.3z"/>
	<path class="st0" d="M316.3,133.5c-5.5,0-8.9-4.3-8.9-11.3c0-7,3.4-11.3,8.9-11.3c5.5,0,8.9,4.3,8.9,11.3
		C325.2,129.2,321.8,133.5,316.3,133.5L316.3,133.5z M316.3,116.3c-2.3,0-3.4,1.9-3.4,5.9c0,4,1,5.9,3.4,5.9c2.3,0,3.3-1.9,3.3-5.9
		C319.7,118.2,318.7,116.3,316.3,116.3L316.3,116.3z"/>
	<path class="st0" d="M300.2,124.3c-0.3,2.6-1.3,3.8-3.2,3.8c-2.3,0-3.4-1.9-3.4-5.9c0-4,1-5.9,3.4-5.9c1.9,0,3,1.3,3.3,4l5.5-0.4
		c-0.7-5.6-3.9-9-8.8-9c-5.5,0-8.9,4.3-8.9,11.3c0,7,3.4,11.3,8.9,11.3c4.8,0,8-3.3,8.7-8.8L300.2,124.3L300.2,124.3z"/>
	<path class="st0" d="M206.6,133.5c-5.5,0-8.5-3-8.5-8.4v-13.9h5.7v13.3c0,2.4,0.7,3.4,2.8,3.4c2.1,0,2.7-1.1,2.7-3.4v-13.3h5.7
		v13.9C215,130.5,212.1,133.5,206.6,133.5L206.6,133.5z"/>
	<polygon class="st0" points="243.1,133.2 237.4,133.2 237.4,111.3 243.1,111.3 243.1,133.2 	"/>
	<polygon class="st0" points="260.6,111.3 255.7,111.3 250,111.3 245,111.3 245,116.5 250,116.5 250,133.2 255.7,133.2 255.7,116.5 
		260.6,116.5 260.6,111.3 	"/>
	<polygon class="st0" points="277.6,116.5 277.6,111.3 268.1,111.3 267.6,111.3 262.4,111.3 262.4,133.2 267.7,133.2 268.1,133.2 
		277.6,133.2 277.6,128 268.1,128 268.1,124.6 275.7,124.6 275.7,119.5 268.1,119.5 268.1,116.5 277.6,116.5 	"/>
	<polygon class="st0" points="391.9,116.5 391.9,111.3 382.4,111.3 381.9,111.3 376.7,111.3 376.7,133.2 381.9,133.2 382.4,133.2 
		391.9,133.2 391.9,128 382.4,128 382.4,124.6 389.9,124.6 389.9,119.5 382.4,119.5 382.4,116.5 391.9,116.5 	"/>
</g>
</svg>
